<svg xmlns="http://www.w3.org/2000/svg" viewBox="0 0 40 40" id="adidas"><path d="M31 30.13c-1.41 0-2.24-.72-2.3-1.75h1.34c0 .34.19.8 1 .83.58 0 .89-.35.89-.61s-.57-.43-1.08-.51a5.11 5.11 0 0 1-1.34-.35 1.36 1.36 0 0 1-.7-1.23c0-.92.76-1.64 2.1-1.64s2.11.66 2.17 1.67h-1.21c0-.26-.07-.69-.83-.69-.51 0-.83.08-.9.46s1.09.49 1.92.69a1.48 1.48 0 0 1 1.28 1.38c0 1.26-1 1.75-2.3 1.75M4.55 27.49A1.5 1.5 0 0 0 6 29a1.45 1.45 0 0 0 1.47-1.47A1.47 1.47 0 0 0 6 26a1.52 1.52 0 0 0-1.46 1.46M6 30.14a2.65 2.65 0 0 1-2.61-2.65A2.62 2.62 0 0 1 6 24.88a2.52 2.52 0 0 1 1.53.46v-.4h1.23V30H7.48v-.3a2.59 2.59 0 0 1-1.48.44m4.42-2.65A1.46 1.46 0 0 0 11.89 29a1.51 1.51 0 0 0 1.47-1.47A1.53 1.53 0 0 0 11.89 26a1.48 1.48 0 0 0-1.47 1.46m1.41 2.65a2.62 2.62 0 0 1-2.62-2.65 2.59 2.59 0 0 1 2.62-2.61 2.56 2.56 0 0 1 1.53.46v-2.2h1.27V30h-1.27v-.3a2.77 2.77 0 0 1-1.53.44m12.25-2.65A1.46 1.46 0 0 0 25.55 29 1.5 1.5 0 0 0 27 27.49 1.52 1.52 0 0 0 25.55 26a1.48 1.48 0 0 0-1.47 1.46m1.4 2.65a2.61 2.61 0 0 1-2.61-2.65 2.58 2.58 0 0 1 2.61-2.61 2.52 2.52 0 0 1 1.53.46v-.4h1.22V30H27v-.3a2.72 2.72 0 0 1-1.53.44m-7.26-2.65A1.5 1.5 0 0 0 19.68 29a1.46 1.46 0 0 0 1.47-1.47A1.48 1.48 0 0 0 19.68 26a1.52 1.52 0 0 0-1.47 1.46m2.94-4.35h1.27V30h-1.27v-.3a2.44 2.44 0 0 1-1.47.44A2.67 2.67 0 0 1 17 27.49a2.64 2.64 0 0 1 2.68-2.61 2.27 2.27 0 0 1 1.47.46zM15.21 24.86h1.29v5.12h-1.29zM15.21 23.14h1.28v1.26h-1.28z"></path><path d="M6.59 21.64 11 19.09l2.36 4.05H7.42zM23 23.14l-6.13-10.69 4.4-2.59 7.66 13.28zM21.15 23.14l-4.92-8.59-4.47 2.52 3.45 6.07h5.94z"></path></svg>