<svg xmlns="http://www.w3.org/2000/svg" viewBox="0 0 40 40" id="puma"><path d="M21.17 12.59c-.1 0-.19.38-.38.57s-.32.13-.41.29 0 .17-.06.28-.32.27-.32.44.23.29.42.46.17.24.36.31.4-.13.61-.06.34.09.38.27 0 .42-.21.39a2.31 2.31 0 0 0-.77-.07c-.46 0-1 .2-1 .71a.59.59 0 0 0 .67.56c.23 0 .12-.32.25-.46s1.13.61 2 .61a1.15 1.15 0 0 0 .93-.39s.06-.07.1-.07a.39.39 0 0 1 .13.05 4.61 4.61 0 0 0 3.9 1.75 1.82 1.82 0 0 1 1.14.5 3 3 0 0 1 .66 1.18A6.4 6.4 0 0 0 31 22l.68.53v.17c0 .44-.08 1.71.87 1.77.23 0 .17-.15.17-.27a1.31 1.31 0 0 1 .08-.67c.16-.31-.34-.45-.33-1.13 0-.5-.41-.42-.62-.8a1 1 0 0 1-.23-.61 5.29 5.29 0 0 0-.51-2.78c-.15-.19-.27-.26-.13-.35a2.42 2.42 0 0 0 1-1 6.08 6.08 0 0 1 1.32-2.29 3.89 3.89 0 0 1 .54-.36 3.64 3.64 0 0 0 .89-.51c.22-.22.4-.68.18-.95s-.73-.07-.93 0c-1.46.86-1.67 2.39-2.18 3.26a2.33 2.33 0 0 1-1.64 1.26 3 3 0 0 1-1.39-.27 7.13 7.13 0 0 1-1.92-1.27c-.31-.24-2.69-2.58-4.63-2.68 0 0-.24-.48-.3-.48s-.29.28-.39.32-.26-.33-.36-.32m-8.52 14.02a.36.36 0 0 1-.34-.34v-6h-2v6.65a.6.6 0 0 0 .59.6h3.48a.59.59 0 0 0 .59-.6v-6.69H13v6a.36.36 0 0 1-.34.34m6.65-6.34h-3a.65.65 0 0 0-.65.65v6.6h2v-6.05a.35.35 0 0 1 .34-.34.34.34 0 0 1 .34.33v6.06h2V21.4a.34.34 0 0 1 .68 0v6.05h2v-6.6a.65.65 0 0 0-.65-.65h-3M9 25.64H7v1.82H5v-7.25h4a.64.64 0 0 1 .64.65V25a.65.65 0 0 1-.64.64zm-1.34-4.22a.34.34 0 0 0-.33-.35H7v3.67h.34a.34.34 0 0 0 .33-.34v-3"></path><path d="M26.31 27.46v-1.82h-.68v1.82h-2v-6.6a.65.65 0 0 1 .65-.65h3.36a.65.65 0 0 1 .64.65v6.6Zm0-2.72V21.4a.34.34 0 0 0-.34-.32.34.34 0 0 0-.34.33v3.33h.68"></path></svg>